<?xml version="1.0" encoding="UTF-8"?>
<svg version="1.1" xmlns="http://www.w3.org/2000/svg" width="64" height="64">
<path d="M0 0 C1.32570511 0.00666183 1.32570511 0.00666183 2.67819214 0.01345825 C3.67907867 0.01360931 4.67996521 0.01376038 5.71118164 0.01391602 C7.33623123 0.02939987 7.33623123 0.02939987 8.99411011 0.04519653 C10.65456863 0.04944138 10.65456863 0.04944138 12.34857178 0.05377197 C15.89458898 0.06499384 19.44035636 0.09010213 22.98629761 0.11550903 C25.38603355 0.12553624 27.78577344 0.13466253 30.18551636 0.14285278 C36.07752911 0.16493971 41.96939552 0.19843697 47.86129761 0.24050903 C48.35629761 1.23050903 48.35629761 1.23050903 48.86129761 2.24050903 C49.52129761 2.90050903 50.18129761 3.56050903 50.86129761 4.24050903 C52.98302576 7.42310127 53.11303011 8.21727727 53.12008667 11.86380005 C53.12639099 12.79809341 53.13269531 13.73238678 53.13919067 14.69499207 C53.13514221 15.70130173 53.13109375 16.70761139 53.12692261 17.74441528 C53.12979279 19.29575417 53.12979279 19.29575417 53.13272095 20.87843323 C53.13408216 23.06480147 53.13039017 25.2511778 53.12203979 27.43753052 C53.11132871 30.79326419 53.12194299 34.14846381 53.13473511 37.50418091 C53.13341371 39.62592689 53.13085174 41.74767253 53.12692261 43.86941528 C53.13097107 44.87774918 53.13501953 45.88608307 53.13919067 46.92497253 C53.13288635 47.85611374 53.12658203 48.78725494 53.12008667 49.74661255 C53.11849548 50.56807266 53.1169043 51.38953278 53.11526489 52.23588562 C52.86129761 54.24050903 52.86129761 54.24050903 50.86129761 56.24050903 C50.42608292 56.76908005 49.99086823 57.29765106 49.54246521 57.84223938 C47.27713802 59.72636935 45.88598721 59.61492507 42.96261597 59.61282349 C41.96826035 59.61905228 40.97390472 59.62528107 39.94941711 59.63169861 C38.87748611 59.62248886 37.80555511 59.61327911 36.70114136 59.60379028 C35.6003273 59.60428879 34.49951324 59.60478729 33.36534119 59.6053009 C31.03772171 59.6029596 28.71009975 59.59322781 26.38253784 59.57669067 C22.80947369 59.55307958 19.23715439 59.55613179 15.66403198 59.56277466 C13.40556397 59.55719874 11.14709911 59.5500894 8.88864136 59.54129028 C7.81468613 59.54220169 6.7407309 59.5431131 5.63423157 59.54405212 C4.64302811 59.53452011 3.65182465 59.5249881 2.63058472 59.51516724 C1.75582993 59.51055984 0.88107513 59.50595245 -0.02018738 59.50120544 C-2.13870239 59.24050903 -2.13870239 59.24050903 -4.13870239 57.24050903 C-4.65432739 56.76613403 -5.16995239 56.29175903 -5.70120239 55.80300903 C-8.21495906 53.07066483 -8.26684258 50.33496863 -8.28396606 46.80081177 C-8.29034592 45.90655991 -8.29672577 45.01230804 -8.30329895 44.09095764 C-8.30441177 43.12839554 -8.3055246 42.16583344 -8.30667114 41.17410278 C-8.30999954 40.18426895 -8.31332794 39.19443512 -8.3167572 38.17460632 C-8.32181983 36.08240219 -8.32416573 33.99018999 -8.32400513 31.89797974 C-8.32619615 28.6871525 -8.34437137 25.4766663 -8.36331177 22.26589966 C-8.36624484 20.23530188 -8.36823021 18.20470246 -8.36917114 16.17410278 C-8.37635666 15.20951645 -8.38354218 14.24493011 -8.39094543 13.25111389 C-8.3878688 12.36001419 -8.38479218 11.46891449 -8.38162231 10.55081177 C-8.38304733 9.76488144 -8.38447235 8.97895111 -8.38594055 8.16920471 C-7.94157623 4.70273518 -3.43004334 0.38572754 0 0 Z " fill="#1D6DB4" transform="translate(9.138702392578125,1.759490966796875)"/>
<path d="M0 0 C0.33 0 0.66 0 1 0 C1.0505963 6.37203593 1.08568957 12.7440203 1.10986328 19.11621094 C1.11993789 21.28517594 1.13359798 23.45412731 1.15087891 25.62304688 C1.17506323 28.73571126 1.18646832 31.84819651 1.1953125 34.9609375 C1.20563507 35.934935 1.21595764 36.9089325 1.22659302 37.91244507 C1.22681961 39.26361923 1.22681961 39.26361923 1.22705078 40.64208984 C1.231492 41.43706879 1.23593323 42.23204773 1.24050903 43.05111694 C1 45 1 45 -1 47 C-1.43521469 47.52857101 -1.87042938 48.05714203 -2.3188324 48.60173035 C-4.58415959 50.48586032 -5.9753104 50.37441604 -8.89868164 50.37231445 C-9.89303726 50.37854324 -10.88739288 50.38477203 -11.91188049 50.39118958 C-12.98381149 50.38197983 -14.05574249 50.37277008 -15.16015625 50.36328125 C-16.26097031 50.36377975 -17.36178436 50.36427826 -18.49595642 50.36479187 C-20.8235759 50.36245056 -23.15119786 50.35271878 -25.47875977 50.33618164 C-29.05182392 50.31257055 -32.62414321 50.31562276 -36.19726562 50.32226562 C-38.45573364 50.3166897 -40.7141985 50.30958037 -42.97265625 50.30078125 C-44.04661148 50.30169266 -45.12056671 50.30260406 -46.22706604 50.30354309 C-47.2182695 50.29401108 -48.20947296 50.28447906 -49.23071289 50.2746582 C-50.10546768 50.27005081 -50.98022247 50.26544342 -51.88148499 50.26069641 C-54 50 -54 50 -56 48 C-56.515625 47.525625 -57.03125 47.05125 -57.5625 46.5625 C-59 45 -59 45 -60 42 C-59.83988879 39.29876894 -59.39559392 36.68124769 -59 34 C-58.05640625 33.84144531 -57.1128125 33.68289062 -56.140625 33.51953125 C-41.71497735 30.89800291 -29.55884028 26.21429892 -18.75 15.9375 C-17.38875 14.9784375 -17.38875 14.9784375 -16 14 C-12.828125 14.87890625 -12.828125 14.87890625 -10 16 C-9.86722656 15.00097656 -9.73445313 14.00195312 -9.59765625 12.97265625 C-9.42105469 11.68230469 -9.24445312 10.39195313 -9.0625 9.0625 C-8.88847656 7.77472656 -8.71445312 6.48695312 -8.53515625 5.16015625 C-8 2 -8 2 -7 1 C-4.5 0.875 -4.5 0.875 -2 1 C-1.505 1.495 -1.505 1.495 -1 2 C-0.67 1.34 -0.34 0.68 0 0 Z " fill="#16508D" transform="translate(61,11)"/>
<path d="M0 0 C-0.14053872 2.62538284 -0.28718947 5.25017427 -0.4375 7.875 C-0.47681641 8.62136719 -0.51613281 9.36773437 -0.55664062 10.13671875 C-0.88671875 15.7734375 -0.88671875 15.7734375 -2 18 C-2.75410156 17.76410156 -3.50820313 17.52820313 -4.28515625 17.28515625 C-7.01015932 16.68036805 -7.01015932 16.68036805 -8.74609375 18.37109375 C-9.30425781 19.05300781 -9.86242187 19.73492188 -10.4375 20.4375 C-16.10416656 26.48907221 -23.8409536 32.57258775 -32.34765625 33.27734375 C-34.98584267 33.03565183 -37.43937243 32.66889863 -40 32 C-38.68 31.34 -37.36 30.68 -36 30 C-36 29.34 -36 28.68 -36 28 C-35.31035156 27.67128906 -34.62070312 27.34257813 -33.91015625 27.00390625 C-26.51797975 23.26218728 -17.76235225 18.28705675 -15 10 C-16.32 9.34 -17.64 8.68 -19 8 C-18 5 -18 5 -14.7265625 3.359375 C-13.36404134 2.81117313 -11.99656287 2.27517091 -10.625 1.75 C-9.93921875 1.46898437 -9.2534375 1.18796875 -8.546875 0.8984375 C-3.38751395 -1.12917132 -3.38751395 -1.12917132 0 0 Z " fill="#ECC384" transform="translate(52,8)"/>
<path d="M0 0 C2.16462407 2.34500941 3.46285499 3.92641898 3.63525391 7.16870117 C3.58288574 8.15845947 3.53051758 9.14821777 3.4765625 10.16796875 C3.425 11.24111328 3.3734375 12.31425781 3.3203125 13.41992188 C3.22363281 15.09924805 3.22363281 15.09924805 3.125 16.8125 C3.06828125 17.94365234 3.0115625 19.07480469 2.953125 20.24023438 C2.81157786 23.03579047 2.66015835 25.83045841 2.5 28.625 C2.17 28.625 1.84 28.625 1.5 28.625 C1.005 18.725 1.005 18.725 0.5 8.625 C-1.15 8.625 -2.8 8.625 -4.5 8.625 C-4.63277344 9.46804688 -4.76554687 10.31109375 -4.90234375 11.1796875 C-5.07894531 12.27539062 -5.25554688 13.37109375 -5.4375 14.5 C-5.61152344 15.59054688 -5.78554688 16.68109375 -5.96484375 17.8046875 C-6.5 20.625 -6.5 20.625 -7.5 22.625 C-9.48 22.295 -11.46 21.965 -13.5 21.625 C-13.5 20.965 -13.5 20.305 -13.5 19.625 C-11.025 20.615 -11.025 20.615 -8.5 21.625 C-8.005 12.715 -8.005 12.715 -7.5 3.625 C-9.15 3.955 -10.8 4.285 -12.5 4.625 C-14.8125 3.6875 -14.8125 3.6875 -16.5 2.625 C-16.5 1.305 -16.5 -0.015 -16.5 -1.375 C-14.37562788 -1.56948477 -12.25046809 -1.75538289 -10.125 -1.9375 C-8.94164062 -2.04191406 -7.75828125 -2.14632813 -6.5390625 -2.25390625 C-3.25747128 -2.38466374 -2.36257772 -2.16569625 0 0 Z " fill="#539CC4" transform="translate(58.5,4.375)"/>
<path d="M0 0 C0 2 0 4 0 6 C0.66 6.33 1.32 6.66 2 7 C-1.71732021 11.18198524 -5.51210014 14.47660305 -11 16 C-14.73840023 16.02959156 -18.31763062 15.62275365 -22 15 C-20.68 14.34 -19.36 13.68 -18 13 C-18 12.34 -18 11.68 -18 11 C-9.71106095 6.26862302 -9.71106095 6.26862302 -6.1875 4.9375 C-3.4936261 3.78298262 -1.94475707 2.16084118 0 0 Z " fill="#CC9B7E" transform="translate(34,25)"/>
<path d="M0 0 C0.53625 0.37125 1.0725 0.7425 1.625 1.125 C-5.125 5.125 -5.125 5.125 -7.375 5.125 C-7.045 6.445 -6.715 7.765 -6.375 9.125 C-7.365 9.455 -8.355 9.785 -9.375 10.125 C-9.375 8.805 -9.375 7.485 -9.375 6.125 C-10.6125 6.455 -11.85 6.785 -13.125 7.125 C-16.12091845 7.92391159 -18.17607719 8.125 -21.375 8.125 C-21.705 9.775 -22.035 11.425 -22.375 13.125 C-23.035 12.795 -23.695 12.465 -24.375 12.125 C-24.045 9.485 -23.715 6.845 -23.375 4.125 C-21.85519531 3.83496094 -21.85519531 3.83496094 -20.3046875 3.5390625 C-18.95308432 3.27625077 -17.60152408 3.01321817 -16.25 2.75 C-15.58484375 2.62367187 -14.9196875 2.49734375 -14.234375 2.3671875 C-11.07018773 1.74675862 -8.08155499 1.02352836 -5.03125 -0.03125 C-2.375 -0.875 -2.375 -0.875 0 0 Z " fill="#0F366A" transform="translate(25.375,40.875)"/>
<path d="M0 0 C14.19 0 28.38 0 43 0 C43 0.33 43 0.66 43 1 C39.7 1.33 36.4 1.66 33 2 C33 2.99 33 3.98 33 5 C33.99 5.66 34.98 6.32 36 7 C34.02 7.66 32.04 8.32 30 9 C29.67 6.69 29.34 4.38 29 2 C19.1 2 9.2 2 -1 2 C-0.67 1.34 -0.34 0.68 0 0 Z " fill="#2987BA" transform="translate(10,2)"/>
<path d="M0 0 C0.66 0.33 1.32 0.66 2 1 C2 4.3 2 7.6 2 11 C0.68 10.67 -0.64 10.34 -2 10 C-4.03131672 11.28511874 -6.03277992 12.61876037 -8 14 C-8.99 14 -9.98 14 -11 14 C-10.59102482 9.1009995 -8.60793633 7.3004017 -4.9375 4.1875 C-3.55884766 3.00220703 -3.55884766 3.00220703 -2.15234375 1.79296875 C-1.44207031 1.20128906 -0.73179688 0.60960938 0 0 Z " fill="#2FB9E0" transform="translate(44,28)"/>
<path d="M0 0 C3.04386724 -0.08226668 5.07175348 0.02391783 8 1 C9.72536537 1.37224418 11.45500309 1.7250006 13.1875 2.0625 C14.08855469 2.23910156 14.98960938 2.41570313 15.91796875 2.59765625 C16.60503906 2.73042969 17.29210937 2.86320312 18 3 C12.40185694 6.73209538 6.54467462 7.27269478 0 7 C0 4.69 0 2.38 0 0 Z " fill="#154B88" transform="translate(2,38)"/>
<path d="M0 0 C0.66 0.33 1.32 0.66 2 1 C1.67 8.92 1.34 16.84 1 25 C0.67 25 0.34 25 0 25 C-0.33 18.4 -0.66 11.8 -1 5 C-2.65 5 -4.3 5 -6 5 C-6.13277344 5.84304687 -6.26554687 6.68609375 -6.40234375 7.5546875 C-6.57894531 8.65039062 -6.75554688 9.74609375 -6.9375 10.875 C-7.19853516 12.51082031 -7.19853516 12.51082031 -7.46484375 14.1796875 C-8 17 -8 17 -9 19 C-10.98 18.67 -12.96 18.34 -15 18 C-15 17.34 -15 16.68 -15 16 C-12.525 16.99 -12.525 16.99 -10 18 C-9.34 12.72 -8.68 7.44 -8 2 C-6.02 2 -4.04 2 -2 2 C-1.34 1.34 -0.68 0.68 0 0 Z " fill="#298DCD" transform="translate(60,8)"/>
<path d="M0 0 C0.66 0.33 1.32 0.66 2 1 C2 2.32 2 3.64 2 5 C2.99 5.33 3.98 5.66 5 6 C1.55824478 8.14699969 -0.7720292 8.09856795 -4.75 7.625 C-6.22726562 7.45871094 -6.22726562 7.45871094 -7.734375 7.2890625 C-8.85585937 7.14597656 -8.85585937 7.14597656 -10 7 C-8.68 6.34 -7.36 5.68 -6 5 C-6 4.34 -6 3.68 -6 3 C-4.03533587 1.93224776 -2.03144641 0.93446535 0 0 Z " fill="#A3AAB4" transform="translate(22,33)"/>
<path d="M0 0 C-6.75 4 -6.75 4 -9 4 C-8.67 5.32 -8.34 6.64 -8 8 C-8.99 8.33 -9.98 8.66 -11 9 C-11 7.35 -11 5.7 -11 4 C-11.66 4 -12.32 4 -13 4 C-13.33 3.01 -13.66 2.02 -14 1 C-12.42298018 0.44021816 -10.83800758 -0.09719401 -9.25 -0.625 C-7.92742188 -1.07746094 -7.92742188 -1.07746094 -6.578125 -1.5390625 C-3.58982529 -2.07333427 -2.50076998 -1.62433191 0 0 Z " fill="#113E79" transform="translate(27,42)"/>
<path d="M0 0 C4.29 0 8.58 0 13 0 C11.68 0.33 10.36 0.66 9 1 C9 1.99 9 2.98 9 4 C6.75 5.125 6.75 5.125 4 6 C1.6875 5.125 1.6875 5.125 0 4 C0 2.68 0 1.36 0 0 Z " fill="#4EA9D9" transform="translate(42,3)"/>
<path d="M0 0 C0.33 0.66 0.66 1.32 1 2 C1.99 2.33 2.98 2.66 4 3 C1.16569547 6.2542015 -0.68607774 7.5206753 -5 8 C-4.64950425 4.75791433 -4.43778819 3.38472296 -1.9375 1.1875 C-1.298125 0.795625 -0.65875 0.40375 0 0 Z " fill="#2BAEE0" transform="translate(38,34)"/>
<path d="M0 0 C0.66 1.32 1.32 2.64 2 4 C1.42765625 4.25523438 0.8553125 4.51046875 0.265625 4.7734375 C-2.24173733 6.13087159 -4.1330456 7.71974104 -6.25 9.625 C-6.95640625 10.25664063 -7.6628125 10.88828125 -8.390625 11.5390625 C-8.92171875 12.02117188 -9.4528125 12.50328125 -10 13 C-10.66 12.67 -11.32 12.34 -12 12 C-12 11.34 -12 10.68 -12 10 C-10.390625 8.6328125 -10.390625 8.6328125 -8.25 7.125 C-5.23327463 4.94268803 -2.53516854 2.74643258 0 0 Z " fill="#1964B3" transform="translate(44,25)"/>
<path d="M0 0 C0.1875 2.375 0.1875 2.375 0 5 C-4.1795645 7.78637633 -6.14668677 6.79562512 -11 6 C-3.28571429 0 -3.28571429 0 0 0 Z " fill="#2384CD" transform="translate(31,40)"/>
<path d="M0 0 C-0.33 1.32 -0.66 2.64 -1 4 C-4.3 4 -7.6 4 -11 4 C-11 3.01 -11 2.02 -11 1 C-7.32589215 -0.17571451 -3.83070817 -0.07366746 0 0 Z " fill="#134481" transform="translate(15,48)"/>
<path d="M0 0 C0.625 1.875 0.625 1.875 1 4 C0.34 4.66 -0.32 5.32 -1 6 C-3.72869407 5.96712417 -6.2966618 5.43602229 -9 5 C-6.14693203 2.67527795 -3.45925163 1.2491742 0 0 Z " fill="#85737E" transform="translate(21,35)"/>
<path d="M0 0 C0 2 0 4 0 6 C0.66 6.33 1.32 6.66 2 7 C-1 9 -1 9 -4 9 C-4.8125 7.3125 -4.8125 7.3125 -5 5 C-2.5625 2.25 -2.5625 2.25 0 0 Z " fill="#DC8B42" transform="translate(34,25)"/>
<path d="M0 0 C2.31 0 4.62 0 7 0 C7.33 0.66 7.66 1.32 8 2 C5.69 2.66 3.38 3.32 1 4 C0.67 2.68 0.34 1.36 0 0 Z " fill="#1D69B4" transform="translate(18,46)"/>
<path d="M0 0 C0.598125 0.350625 1.19625 0.70125 1.8125 1.0625 C-0.1675 2.0525 -2.1475 3.0425 -4.1875 4.0625 C-4.8475 3.4025 -5.5075 2.7425 -6.1875 2.0625 C-4.66896708 -0.97456585 -3.05066334 -1.30742714 0 0 Z " fill="#114687" transform="translate(25.1875,40.9375)"/>
<path d="M0 0 C0 1.65 0 3.3 0 5 C-1.98 5 -3.96 5 -6 5 C-4.87312259 1.61936778 -3.78825335 0 0 0 Z " fill="#2792D2" transform="translate(31,40)"/>
<path d="M0 0 C2.31 0 4.62 0 7 0 C6.67 0.99 6.34 1.98 6 3 C4.35 3 2.7 3 1 3 C0.67 2.01 0.34 1.02 0 0 Z " fill="#43A1D3" transform="translate(52,8)"/>
<path d="M0 0 C3.125 0.375 3.125 0.375 6 1 C3.09907498 2.93395001 2.10325263 3.30131941 -1.1875 3.625 C-2.445625 3.74875 -3.70375 3.8725 -5 4 C-4.01 3.34 -3.02 2.68 -2 2 C-1.34 1.34 -0.68 0.68 0 0 Z " fill="#2C76B0" transform="translate(14,40)"/>
<path d="M0 0 C0.66 0.33 1.32 0.66 2 1 C2 3.97 2 6.94 2 10 C1.67 10 1.34 10 1 10 C1 7.69 1 5.38 1 3 C-0.32 3.33 -1.64 3.66 -3 4 C-2.01 2.68 -1.02 1.36 0 0 Z " fill="#C5E8F4" transform="translate(44,28)"/>
<path d="M0 0 C1.32 0 2.64 0 4 0 C4 0.66 4 1.32 4 2 C2.68 2 1.36 2 0 2 C0 1.34 0 0.68 0 0 Z " fill="#000E24" transform="translate(14,62)"/>
<path d="M0 0 C0.66 0.66 1.32 1.32 2 2 C1.01 1.67 0.02 1.34 -1 1 C-0.67 0.67 -0.34 0.34 0 0 Z " fill="#001321" transform="translate(43,62)"/>
<path d="M0 0 C3 1 3 1 3 1 Z " fill="#00254A" transform="translate(36,63)"/>
<path d="M0 0 C2 1 2 1 2 1 Z " fill="#000000" transform="translate(48,63)"/>
<path d="" fill="#000000" transform="translate(0,0)"/>
<path d="" fill="#000000" transform="translate(0,0)"/>
<path d="" fill="#002020" transform="translate(0,0)"/>
<path d="" fill="#000000" transform="translate(0,0)"/>
<path d="" fill="#000000" transform="translate(0,0)"/>
<path d="" fill="#000000" transform="translate(0,0)"/>
<path d="" fill="#000000" transform="translate(0,0)"/>
<path d="" fill="#000000" transform="translate(0,0)"/>
<path d="" fill="#000000" transform="translate(0,0)"/>
<path d="" fill="#000000" transform="translate(0,0)"/>
<path d="" fill="#000000" transform="translate(0,0)"/>
<path d="" fill="#000000" transform="translate(0,0)"/>
<path d="" fill="#000000" transform="translate(0,0)"/>
<path d="" fill="#000000" transform="translate(0,0)"/>
</svg>
